<svg clip-rule="evenodd" fill-rule="evenodd" stroke-linejoin="round" stroke-miterlimit="2" viewBox="0 0 64 64" xmlns="http://www.w3.org/2000/svg"><g transform="translate(-668 -8)"><g><path d="m729 49c0-3.866-3.134-7-7-7h-44c-3.866 0-7 3.134-7 7v16c0 3.866 3.134 7 7 7h44c3.866 0 7-3.134 7-7z" fill="#f51e1e"/></g><g><path d="m711 56v-3h4c.552 0 1-.448 1-1s-.448-1-1-1h-5c-.552 0-1 .448-1 1v10c0 .552.448 1 1 1h5c.552 0 1-.448 1-1s-.448-1-1-1h-4v-3h4c.552 0 1-.448 1-1s-.448-1-1-1z" fill="#fff"/></g><g><path d="m695 62v-10c0-.552-.448-1-1-1s-1 .448-1 1v10c0 .552.448 1 1 1s1-.448 1-1z" fill="#fff"/></g><g><path d="m683 52v10c0 .552.448 1 1 1h5c.552 0 1-.448 1-1s-.448-1-1-1h-4v-9c0-.552-.448-1-1-1s-1 .448-1 1z" fill="#fff"/></g><g><path d="m704.042 51.713-2.042 6.807s-2.042-6.807-2.042-6.807c-.159-.529-.717-.829-1.245-.671-.529.159-.829.717-.671 1.245l3 10c.127.423.516.713.958.713s.831-.29.958-.713l3-10c.158-.528-.142-1.086-.671-1.245-.528-.158-1.086.142-1.245.671z" fill="#fff"/></g><g><path d="m709.394 9.833c4.583 3.047 7.606 8.256 7.606 14.167s-3.023 11.12-7.606 14.167c-.459.306-.584.927-.279 1.387.306.459.927.584 1.387.279 5.121-3.405 8.498-9.228 8.498-15.833s-3.377-12.428-8.498-15.833c-.46-.305-1.081-.18-1.387.279-.305.46-.18 1.081.279 1.387z" fill="#f51e1e"/></g><g><path d="m689.498 8.167c-5.121 3.405-8.498 9.228-8.498 15.833s3.377 12.428 8.498 15.833c.46.305 1.081.18 1.387-.279.305-.46.18-1.081-.279-1.387-4.583-3.047-7.606-8.256-7.606-14.167s3.023-11.12 7.606-14.167c.459-.306.584-.927.279-1.387-.306-.459-.927-.584-1.387-.279z" fill="#f51e1e"/></g><g><path d="m706.078 14.833c2.966 1.971 4.922 5.342 4.922 9.167s-1.956 7.196-4.922 9.167c-.459.306-.584.927-.279 1.387.306.459.927.584 1.387.279 3.503-2.33 5.814-6.314 5.814-10.833s-2.311-8.503-5.814-10.833c-.46-.305-1.081-.18-1.387.279-.305.46-.18 1.081.279 1.387z" fill="#f51e1e"/></g><g><path d="m692.814 13.167c-3.503 2.33-5.814 6.314-5.814 10.833s2.311 8.503 5.814 10.833c.46.305 1.081.18 1.387-.279.305-.46.18-1.081-.279-1.387-2.966-1.971-4.922-5.342-4.922-9.167s1.956-7.196 4.922-9.167c.459-.306.584-.927.279-1.387-.306-.459-.927-.584-1.387-.279z" fill="#f51e1e"/></g><g><circle cx="700" cy="24" fill="#f51e1e" r="6"/></g></g></svg>